<?xml version="1.0" encoding="utf-8"?>
<!-- Generator: Adobe Illustrator 24.2.3, SVG Export Plug-In . SVG Version: 6.00 Build 0)  -->
<svg version="1.1" id="图层_1" xmlns="http://www.w3.org/2000/svg" xmlns:xlink="http://www.w3.org/1999/xlink" x="0px" y="0px"
	 viewBox="0 0 243.2 239" style="enable-background:new 0 0 243.2 239;" xml:space="preserve">
<style type="text/css">
	.st0{fill:#255BEE;}
</style>
<path class="st0" d="M241.7,31.6l-1.3-0.7c-0.5-0.6-1.1-1.2-1.7-1.7L189.9,1.1c-2.5-1.3-5.5-1.3-8,0L133,29.2l-1.4,1.4l-1.9,1.1
	c-0.8,0.4-1.2,1.3-1.3,2.2v4.8l-2.4-1.4c-2.6-1.5-5.8-1.5-8.4,0l-2.4,1.4v-4.5c0.1-1.1-0.6-2.1-1.6-2.5l-1.9-1.1c0,0-0.8-1-1.4-1.4
	l-48.9-28c-2.6-1.5-5.8-1.5-8.4,0L4.2,29.2c-0.7,0.5-1.3,1.1-1.8,1.8l-1.3,0.7c-0.8,0.5-1.2,1.4-1.1,2.4v61.5c0,0.9,0.5,1.7,1.3,2.2
	l1.3,0.7c0.5,0.7,1.1,1.3,1.8,1.8l48.9,28.1c2.6,1.5,5.8,1.5,8.4,0l2.7-1.6v2.4c0,2.9,1.4,5.7,3.9,7.3l1.3,0.7l-4.4,2.5
	c-0.8,0.4-1.2,1.3-1.3,2.2v61.8c0,0.8,0.4,1.6,1.1,2c0.7,1.6,1.8,3,3.3,3.9l48.9,28.1c2.6,1.5,5.8,1.5,8.4,0l48.9-28.1
	c1.5-0.9,2.6-2.3,3.3-3.9c0.7-0.4,1.1-1.2,1.1-2v-61.8c0-0.9-0.5-1.7-1.3-2.2l-4.3-2.5l1.3-0.7c2.6-1.5,4.2-4.3,4.2-7.3v-2.4
	l2.7,1.6c2.6,1.5,5.8,1.5,8.4,0l48.9-28.1c0.6-0.5,1.2-1.1,1.7-1.7l1.3-0.7c0.8-0.4,1.2-1.3,1.3-2.2V34.1
	C243.1,33.1,242.6,32.1,241.7,31.6L241.7,31.6z M122.7,108.7c-0.7-0.4-1.6-0.4-2.4,0l-38.2,21.5l-5.6-3.3v-7.3l34.1-19.4l1.4-1.4
	l1.7-1c0.8-0.4,1.2-1.3,1.3-2.2V52.9l6.6-3.8l6.6,3.8v42.7c0,0.9,0.5,1.7,1.3,2.2l1.9,1c0.4,0.5,0.9,1,1.4,1.4l34.1,19.4v7.2
	l-5.6,3.3L122.7,108.7z"/>
</svg>
