<?xml version="1.0" standalone="no"?>
<!DOCTYPE svg PUBLIC "-//W3C//DTD SVG 1.1//EN" "http://www.w3.org/Graphics/SVG/1.1/DTD/svg11.dtd">
<svg t="1715418859574" class="icon" viewBox="100 5 1000 1000" version="1.1" xmlns="http://www.w3.org/2000/svg" p-id="1500" xmlns:xlink="http://www.w3.org/1999/xlink" >
<path d="M624.64 0c117.028571 0 212.041143 227.84 212.041143 509.001143 0 281.088-94.939429 508.928-212.114286 508.928C507.611429 1017.929143 412.525714 790.089143 412.525714 509.074286 412.525714 227.84 507.465143 0 624.64 0z m0 73.142857c-20.114286 0-53.101714 33.499429-82.505143 104.082286C506.587429 262.509714 485.668571 381.293714 485.668571 509.001143c0 127.634286 20.918857 246.418286 56.466286 331.702857 29.403429 70.582857 62.390857 104.082286 82.432 104.082286 20.114286 0 53.028571-33.499429 82.505143-104.082286 35.547429-85.284571 56.466286-204.068571 56.466286-331.702857 0-127.707429-20.918857-246.491429-56.466286-331.776C677.595429 106.642286 644.681143 73.142857 624.566857 73.142857z" fill="#2962ff" p-id="1501">
</path>
<path d="M183.808 254.537143c58.514286-101.449143 303.396571-69.778286 546.816 70.802286 243.419429 140.507429 393.289143 336.676571 334.774857 438.125714-58.514286 101.449143-303.396571 69.705143-546.816-70.802286C275.017143 552.082286 125.220571 355.913143 183.808 254.537143z m63.341714 36.571428c-10.020571 17.334857 2.486857 62.610286 48.932572 123.392 56.100571 73.435429 148.48 150.966857 259.072 214.820572 110.518857 63.780571 223.817143 105.033143 315.538285 116.955428 75.849143 9.801143 121.344-2.048 131.364572-19.382857 10.020571-17.408-2.486857-62.683429-48.932572-123.465143-56.100571-73.435429-148.48-150.966857-259.072-214.747428-110.518857-63.853714-223.817143-105.106286-315.538285-117.028572-75.849143-9.801143-121.344 2.048-131.364572 19.382858z" fill="#2962ff" p-id="1502">
</path>
<path d="M1065.398857 254.537143c58.514286 101.376-91.355429 297.545143-334.774857 438.125714-243.419429 140.507429-488.228571 172.251429-546.816 70.802286-58.514286-101.449143 91.282286-297.618286 334.774857-438.125714 243.419429-140.580571 488.228571-172.251429 546.816-70.875429z m-63.341714 36.571428c-10.020571-17.408-55.588571-29.257143-131.364572-19.382857-91.721143 11.849143-205.019429 53.101714-315.538285 116.955429-110.592 63.780571-202.971429 141.312-259.072 214.747428-46.445714 60.781714-58.953143 106.057143-48.932572 123.465143 10.020571 17.334857 55.588571 29.184 131.364572 19.382857 91.648-11.922286 205.019429-53.174857 315.538285-117.028571 110.592-63.780571 202.971429-141.312 259.072-214.747429 46.445714-60.708571 58.953143-106.057143 48.932572-123.465142z" fill="#2962ff" p-id="1503">
</path>
<path d="M626.322286 510.683429m-73.142857 0a73.142857 73.142857 0 1 0 146.285714 0 73.142857 73.142857 0 1 0-146.285714 0Z" fill="#2962ff" p-id="1504">
</path>
</svg>

